<svg width="130" height="39" viewBox="0 0 130 39" fill="none" xmlns="http://www.w3.org/2000/svg">
<path d="M18.3265 36.1725C17.4379 36.9024 16.3431 37.4895 15.042 37.9338C13.7726 38.3463 12.4874 38.5526 11.1863 38.5526C8.96489 38.5526 7.01324 38.1242 5.33133 37.2673C3.64943 36.4105 2.33246 35.1888 1.38043 33.602C0.460145 32.0153 0 30.1272 0 27.9375C0 25.7479 0.491879 23.8597 1.47564 22.273C2.49113 20.6863 3.8081 19.4804 5.42654 18.6553C7.04498 17.7985 8.79036 17.37 10.6627 17.37C12.3446 17.37 13.8361 17.608 15.1372 18.0841C16.4383 18.5283 17.5648 19.1472 18.5169 19.9405L15.8512 23.4154C15.3435 23.0028 14.677 22.622 13.8519 22.273C13.0586 21.8922 12.1542 21.7017 11.1387 21.7017C10.0597 21.7017 9.07596 21.9715 8.18741 22.511C7.33059 23.0505 6.63243 23.7962 6.09295 24.7482C5.58521 25.6685 5.33133 26.7316 5.33133 27.9375C5.33133 29.6511 5.91842 31.1268 7.09258 32.3644C8.26674 33.5703 9.78998 34.1733 11.6623 34.1733C13.2173 34.1733 14.5501 33.729 15.6608 32.8404L18.3265 36.1725Z" fill="white"/>
<path d="M23.7932 38.029V0.900024H29.0293V21.3685C29.7274 20.0992 30.7429 19.0678 32.0758 18.2745C33.4403 17.4494 35.0588 17.0368 36.9311 17.0368C38.8034 17.0368 40.3584 17.608 41.596 18.7505C42.8654 19.8612 43.5159 21.3051 43.5477 23.0822V38.029H38.2163V24.9862C38.1529 23.9707 37.8514 23.1615 37.3119 22.5586C36.8042 21.9239 35.9632 21.5907 34.789 21.5589C33.1389 21.5589 31.7743 22.273 30.6953 23.701C29.6481 25.129 29.1245 26.922 29.1245 29.0799V38.029H23.7932Z" fill="white"/>
<path d="M49.2282 27.7471C49.2282 25.7161 49.7042 23.8914 50.6562 22.273C51.64 20.6545 52.9728 19.3693 54.6547 18.4173C56.3684 17.4652 58.3359 16.9892 60.5573 16.9892C62.8104 16.9892 64.7621 17.4652 66.4122 18.4173C68.0941 19.3693 69.3952 20.6545 70.3155 22.273C71.2358 23.8914 71.696 25.7161 71.696 27.7471C71.696 29.7781 71.2358 31.6187 70.3155 33.2688C69.3952 34.8873 68.0941 36.1725 66.4122 37.1245C64.7303 38.0766 62.7628 38.5526 60.5097 38.5526C58.32 38.5526 56.3684 38.1242 54.6547 37.2673C52.9728 36.3788 51.64 35.1253 50.6562 33.5068C49.7042 31.8884 49.2282 29.9685 49.2282 27.7471ZM53.3348 27.7471C53.3348 28.953 54.147 30.9409 54.6547 31.9247C55.1625 32.8767 56.5415 33.8932 57.3984 34.4644C58.2869 35.0039 59.3354 35.4803 60.4461 35.4803C62.1914 35.4803 64.1967 34.4747 65.2756 33.2688C66.3546 32.0312 67.5574 29.5559 67.5574 27.7471C67.5574 25.9383 66.0966 23.0033 65.0176 21.7657C63.9387 20.528 61.6835 20.2418 59.9381 20.2418C58.8274 20.2418 57.779 20.6548 56.8904 21.2577C56.0336 21.8289 54.8584 22.3058 54.3507 23.2895C53.8429 24.2415 53.3348 26.5729 53.3348 27.7471Z" fill="white"/>
<path d="M77.298 17.8937H82.6294V38.029H77.298V17.8937ZM77.06 10.7059C77.06 9.88078 77.3774 9.1985 78.012 8.65902C78.6785 8.11954 79.3925 7.8498 80.1541 7.8498C80.884 7.8498 81.5663 8.11954 82.201 8.65902C82.8356 9.1985 83.153 9.88078 83.153 10.7059C83.153 11.531 82.8356 12.2132 82.201 12.7527C81.5663 13.2605 80.884 13.5143 80.1541 13.5143C79.3925 13.5143 78.6785 13.2605 78.012 12.7527C77.3774 12.2132 77.06 11.531 77.06 10.7059Z" fill="white"/>
<path d="M94.7498 17.8937L95.1306 22.5586C95.7018 21.4161 96.4793 20.4324 97.4631 19.6073C98.4468 18.7505 99.4465 18.0999 100.462 17.6556C101.509 17.2114 102.366 16.9892 103.032 16.9892L102.794 22.3206C101.271 22.1936 99.9383 22.4634 98.7959 23.1298C97.6852 23.7962 96.8125 24.7006 96.1779 25.8431C95.5749 26.9537 95.2734 28.1279 95.2734 29.3655V38.029H89.9421V17.8937H94.7498Z" fill="white"/>
<path d="M116.405 38.5526C114.501 38.5526 112.787 38.1559 111.264 37.3625C109.741 36.5692 108.519 35.395 107.599 33.84C106.71 32.2851 106.266 30.3334 106.266 27.9851C106.266 25.7002 106.726 23.7486 107.646 22.1302C108.598 20.48 109.836 19.2106 111.359 18.3221C112.914 17.4335 114.596 16.9892 116.405 16.9892C118.277 16.9892 119.785 17.3542 120.927 18.0841C122.101 18.7822 123.037 19.6232 123.736 20.6069L124.116 17.8937H129.019V38.029H123.688V35.0777C123.339 35.4902 122.831 35.9662 122.165 36.5057C121.498 37.0452 120.673 37.5212 119.689 37.9338C118.737 38.3463 117.643 38.5526 116.405 38.5526ZM117.881 34.1733C119.309 34.1733 120.53 33.7925 121.546 33.0308C122.561 32.2692 123.275 31.222 123.688 29.8892V25.5098C123.307 24.2722 122.577 23.2726 121.498 22.511C120.419 21.7494 119.15 21.3685 117.69 21.3685C116.58 21.3685 115.564 21.6383 114.644 22.1778C113.755 22.6855 113.025 23.4313 112.454 24.415C111.915 25.367 111.645 26.4619 111.645 27.6995C111.645 28.9054 111.93 30.0002 112.502 30.984C113.073 31.9677 113.819 32.7452 114.739 33.3164C115.691 33.8877 116.738 34.1733 117.881 34.1733Z" fill="white"/>
</svg>
