<svg width="10" height="7" viewBox="0 0 10 7" fill="none" xmlns="http://www.w3.org/2000/svg">
<path d="M8.2952 6.75L1.45528 6.75C1.18525 6.75036 0.920629 6.67946 0.692046 6.5455C0.463463 6.41154 0.280266 6.22 0.163661 5.99304C0.0271612 5.72376 -0.0254128 5.42417 0.0119296 5.1284C0.0492721 4.83263 0.175029 4.55258 0.37487 4.32017L3.79483 0.459704C3.92904 0.315406 4.09497 0.199678 4.28138 0.120363C4.46779 0.0410484 4.67032 0 4.87524 0C5.08017 0 5.28269 0.0410484 5.4691 0.120363C5.65551 0.199678 5.82145 0.315406 5.95566 0.459704L9.37562 4.32017C9.57546 4.55258 9.70122 4.83263 9.73856 5.1284C9.7759 5.42417 9.72332 5.72376 9.58683 5.99304C9.47022 6.22 9.28702 6.41154 9.05844 6.5455C8.82986 6.67946 8.56524 6.75036 8.2952 6.75Z" fill="#FFC701"/>
</svg>
