<svg width="18" height="18" viewBox="0 0 18 18" fill="none" xmlns="http://www.w3.org/2000/svg">
<path d="M6.87853 6.5C7.38252 5.89 8.14552 5.5 8.99952 5.5C9.85352 5.5 10.6165 5.89 11.1205 6.5C11.4523 6.90231 11.6629 7.39068 11.7277 7.90814C11.7925 8.4256 11.7088 8.95081 11.4864 9.42251C11.264 9.89422 10.9121 10.293 10.4717 10.5722C10.0313 10.8515 9.52052 10.9998 8.99903 10.9998C8.47753 10.9998 7.96678 10.8515 7.52636 10.5722C7.08594 10.293 6.73401 9.89422 6.51162 9.42251C6.28922 8.95081 6.20554 8.4256 6.27033 7.90814C6.33512 7.39068 6.5457 6.90231 6.87752 6.5H6.87853Z" fill="white"/>
<path d="M12.7498 8.25C12.7498 7.618 12.5938 7.022 12.3178 6.5H16.4998C16.8976 6.5 17.2792 6.65804 17.5605 6.93934C17.8418 7.22064 17.9998 7.60218 17.9998 8V8.5C17.9998 10.087 16.7938 11.712 14.6848 12.284C14.4681 11.8947 14.1512 11.5704 13.7671 11.3446C13.3829 11.1189 12.9454 10.9999 12.4998 11H11.5498C11.9288 10.6493 12.2311 10.2239 12.4377 9.75061C12.6442 9.27732 12.7505 8.76639 12.7498 8.25Z" fill="white"/>
<path d="M12.5 12C12.6971 11.9995 12.8924 12.0379 13.0747 12.1131C13.2569 12.1883 13.4225 12.2988 13.5618 12.4382C13.7012 12.5776 13.8117 12.7431 13.8869 12.9254C13.9621 13.1076 14.0005 13.3029 14 13.5V14C14 15.971 12.14 18 9.00001 18C5.86001 18 4.00001 15.971 4.00001 14V13.5C3.99948 13.3029 4.03792 13.1076 4.11311 12.9254C4.18831 12.7431 4.29878 12.5776 4.43817 12.4382C4.57756 12.2988 4.74313 12.1883 4.92536 12.1131C5.10758 12.0379 5.30287 11.9995 5.50001 12H12.5Z" fill="white"/>
<path d="M0 8.5C0 10.087 1.206 11.712 3.315 12.284C3.53173 11.8947 3.84858 11.5704 4.23274 11.3446C4.6169 11.1189 5.05442 10.9999 5.5 11H6.45C6.07097 10.6493 5.76867 10.2239 5.56214 9.75061C5.35561 9.27732 5.24933 8.76639 5.25 8.25C5.25 7.618 5.406 7.022 5.683 6.5H1.5C1.10218 6.5 0.720644 6.65804 0.43934 6.93934C0.158035 7.22064 0 7.60218 0 8V8.5Z" fill="white"/>
<path d="M7.75 2.75C7.75 2.02065 7.46027 1.32118 6.94454 0.805456C6.42882 0.289731 5.72935 0 5 0C4.27065 0 3.57118 0.289731 3.05546 0.805456C2.53973 1.32118 2.25 2.02065 2.25 2.75C2.25 3.47935 2.53973 4.17882 3.05546 4.69454C3.57118 5.21027 4.27065 5.5 5 5.5C5.72935 5.5 6.42882 5.21027 6.94454 4.69454C7.46027 4.17882 7.75 3.47935 7.75 2.75Z" fill="white"/>
<path d="M15.75 2.75C15.75 2.02065 15.4603 1.32118 14.9445 0.805456C14.4288 0.289731 13.7293 0 13 0C12.2707 0 11.5712 0.289731 11.0555 0.805456C10.5397 1.32118 10.25 2.02065 10.25 2.75C10.25 3.47935 10.5397 4.17882 11.0555 4.69454C11.5712 5.21027 12.2707 5.5 13 5.5C13.7293 5.5 14.4288 5.21027 14.9445 4.69454C15.4603 4.17882 15.75 3.47935 15.75 2.75Z" fill="white"/>
</svg>
