<svg width="30" height="30" viewBox="0 0 30 30" fill="none" xmlns="http://www.w3.org/2000/svg">
<rect x="0.5" y="0.5" width="29" height="29" rx="7.5" stroke="#45556A"/>
<path d="M14.9999 17.4C15.606 17.3993 16.187 17.1463 16.6155 16.6963C17.044 16.2464 17.285 15.6363 17.2857 15V11.4C17.2857 10.7635 17.0448 10.153 16.6162 9.70294C16.1875 9.25286 15.6062 9 14.9999 9C14.3937 9 13.8124 9.25286 13.3837 9.70294C12.955 10.153 12.7142 10.7635 12.7142 11.4V15C12.7149 15.6363 12.9559 16.2464 13.3844 16.6963C13.8129 17.1463 14.3939 17.3993 14.9999 17.4Z" fill="white"/>
<path d="M19 15.0001V13.8001C19 13.641 18.9398 13.4884 18.8326 13.3759C18.7255 13.2633 18.5801 13.2001 18.4286 13.2001C18.277 13.2001 18.1317 13.2633 18.0245 13.3759C17.9173 13.4884 17.8571 13.641 17.8571 13.8001V15.0001C17.8571 15.7958 17.5561 16.5588 17.0203 17.1215C16.4845 17.6841 15.7578 18.0001 15 18.0001C14.2422 18.0001 13.5155 17.6841 12.9797 17.1215C12.4439 16.5588 12.1429 15.7958 12.1429 15.0001V13.8001C12.1429 13.641 12.0827 13.4884 11.9755 13.3759C11.8683 13.2633 11.723 13.2001 11.5714 13.2001C11.4199 13.2001 11.2745 13.2633 11.1674 13.3759C11.0602 13.4884 11 13.641 11 13.8001V15.0001C11.0016 16.0051 11.3462 16.9763 11.9711 17.7374C12.5961 18.4986 13.4602 18.9994 14.4067 19.1491L14.4286 19.1521V19.8001H12.7143C12.6392 19.8001 12.5649 19.8157 12.4956 19.8458C12.4263 19.876 12.3633 19.9202 12.3102 19.9759C12.2572 20.0316 12.2151 20.0977 12.1864 20.1705C12.1576 20.2433 12.1429 20.3213 12.1429 20.4001C12.1429 20.4789 12.1576 20.5569 12.1864 20.6297C12.2151 20.7025 12.2572 20.7687 12.3102 20.8244C12.3633 20.8801 12.4263 20.9243 12.4956 20.9545C12.5649 20.9846 12.6392 21.0001 12.7143 21.0001H17.2857C17.3608 21.0001 17.4351 20.9846 17.5044 20.9545C17.5737 20.9243 17.6367 20.8801 17.6898 20.8244C17.7428 20.7687 17.7849 20.7025 17.8136 20.6297C17.8424 20.5569 17.8571 20.4789 17.8571 20.4001C17.8571 20.3213 17.8424 20.2433 17.8136 20.1705C17.7849 20.0977 17.7428 20.0316 17.6898 19.9759C17.6367 19.9202 17.5737 19.876 17.5044 19.8458C17.4351 19.8157 17.3608 19.8001 17.2857 19.8001H15.5714V19.1521C17.519 18.8476 18.9967 17.1056 19 15.0006V15.0001Z" fill="#45556A"/>
</svg>
