<svg width="30" height="30" viewBox="0 0 30 30" fill="none" xmlns="http://www.w3.org/2000/svg">
<rect x="0.5" y="0.5" width="29" height="29" rx="7.5" stroke="#757575"/>
<path d="M7 9.88889C7 9.12271 7.30436 8.38791 7.84614 7.84614C8.38791 7.30436 9.12271 7 9.88889 7H20.1111C20.8773 7 21.6121 7.30436 22.1539 7.84614C22.6956 8.38791 23 9.12271 23 9.88889V20.1111C23 20.8773 22.6956 21.6121 22.1539 22.1539C21.6121 22.6956 20.8773 23 20.1111 23H9.88889C9.12271 23 8.38791 22.6956 7.84614 22.1539C7.30436 21.6121 7 20.8773 7 20.1111V9.88889ZM15.6667 11.2222C15.6667 11.0454 15.5964 10.8758 15.4714 10.7508C15.3464 10.6258 15.1768 10.5556 15 10.5556C14.8232 10.5556 14.6536 10.6258 14.5286 10.7508C14.4036 10.8758 14.3333 11.0454 14.3333 11.2222V14.3333H11.2222C11.0454 14.3333 10.8758 14.4036 10.7508 14.5286C10.6258 14.6536 10.5556 14.8232 10.5556 15C10.5556 15.1768 10.6258 15.3464 10.7508 15.4714C10.8758 15.5964 11.0454 15.6667 11.2222 15.6667H14.3333V18.7778C14.3333 18.9546 14.4036 19.1242 14.5286 19.2492C14.6536 19.3742 14.8232 19.4444 15 19.4444C15.1768 19.4444 15.3464 19.3742 15.4714 19.2492C15.5964 19.1242 15.6667 18.9546 15.6667 18.7778V15.6667H18.7778C18.9546 15.6667 19.1242 15.5964 19.2492 15.4714C19.3742 15.3464 19.4444 15.1768 19.4444 15C19.4444 14.8232 19.3742 14.6536 19.2492 14.5286C19.1242 14.4036 18.9546 14.3333 18.7778 14.3333H15.6667V11.2222Z" fill="#FFC701"/>
</svg>
