<svg width="14" height="18" viewBox="0 0 14 18" fill="none" xmlns="http://www.w3.org/2000/svg">
<path d="M4.02998 1.44001C4.73558 0.561606 5.80378 0 6.99938 0C8.19498 0 9.26318 0.561606 9.96877 1.44001C10.4333 2.01935 10.7281 2.72261 10.8188 3.46776C10.9096 4.2129 10.7924 4.96922 10.481 5.64848C10.1697 6.32773 9.67699 6.90193 9.06041 7.30408C8.44382 7.70624 7.72878 7.91977 6.99868 7.91977C6.26858 7.91977 5.55353 7.70624 4.93695 7.30408C4.32036 6.90193 3.82766 6.32773 3.51631 5.64848C3.20496 4.96922 3.08781 4.2129 3.17851 3.46776C3.26921 2.72261 3.56403 2.01935 4.02858 1.44001H4.02998Z" fill="white"/>
<path d="M11.9 9.35999C12.176 9.35923 12.4494 9.41458 12.7045 9.52287C12.9596 9.63115 13.1914 9.79023 13.3866 9.99095C13.5817 10.1917 13.7364 10.4301 13.8416 10.6925C13.9469 10.9549 14.0007 11.2361 14 11.52V12.24C14 15.0783 11.396 18.0001 7 18.0001C2.604 18.0001 7.50738e-06 15.0783 7.50738e-06 12.24V11.52C-0.000731407 11.2361 0.0530824 10.9549 0.158355 10.6925C0.263628 10.4301 0.418285 10.1917 0.613435 9.99095C0.808585 9.79023 1.04038 9.63115 1.2955 9.52287C1.55061 9.41458 1.82402 9.35923 2.10001 9.35999H11.9Z" fill="white"/>
</svg>
