<svg width="18" height="21" viewBox="0 0 18 21" fill="none" xmlns="http://www.w3.org/2000/svg">
<path d="M17.4201 8.49992L9.71012 0.47124C9.61715 0.375743 9.50655 0.299945 9.38469 0.248219C9.26283 0.196492 9.13213 0.169861 9.00012 0.169861C8.8681 0.169861 8.7374 0.196492 8.61554 0.248219C8.49368 0.299945 8.38308 0.375743 8.29012 0.47124L0.580115 8.51011C0.393552 8.70173 0.24621 8.92919 0.146643 9.17931C0.0470768 9.42942 -0.00272978 9.6972 0.000115364 9.96709V18.5052C-0.00065946 19.0268 0.194889 19.5288 0.54649 19.9079C0.898091 20.287 1.37898 20.5143 1.89012 20.5429H5.00012V11.3731C5.00012 11.1029 5.10547 10.8438 5.29301 10.6527C5.48055 10.4616 5.7349 10.3543 6.00012 10.3543H12.0001C12.2653 10.3543 12.5197 10.4616 12.7072 10.6527C12.8948 10.8438 13.0001 11.1029 13.0001 11.3731V20.5429H16.1101C16.6213 20.5143 17.1021 20.287 17.4537 19.9079C17.8053 19.5288 18.0009 19.0268 18.0001 18.5052V9.96709C18.0009 9.41989 17.7929 8.8938 17.4201 8.49992Z" fill="white"/>
</svg>
