<svg width="40" height="42" viewBox="0 0 40 42" fill="none" xmlns="http://www.w3.org/2000/svg">
<path fill-rule="evenodd" clip-rule="evenodd" d="M39.0716 32.7945C40.3727 33.8041 40.297 35.3861 38.9026 36.328C31.4001 41.396 23.4163 42.5549 16.4888 41.7818C9.74358 41.0291 4.19747 38.4764 1.06554 36.3062C-0.312268 35.3515 -0.360187 33.7689 0.958505 32.7714C2.2772 31.7739 4.46314 31.7392 5.84095 32.6939C8.15442 34.297 12.4522 36.2721 17.5409 36.84C22.4473 37.3876 28.2876 36.6598 34.1909 32.6721C35.5854 31.7302 37.7705 31.785 39.0716 32.7945Z" fill="#FFC701"/>
<path d="M2 16.9625C2 13.7601 2.76271 10.883 4.28814 8.33113C5.86441 5.77925 8 3.75276 10.6949 2.25166C13.4407 0.750552 16.5932 0 20.1525 0C23.7627 0 26.8898 0.750552 29.5339 2.25166C32.2288 3.75276 34.3136 5.77925 35.7881 8.33113C37.2627 10.883 38 13.7601 38 16.9625C38 20.1648 37.2627 23.067 35.7881 25.6689C34.3136 28.2208 32.2288 30.2472 29.5339 31.7483C26.839 33.2495 23.6865 34 20.0763 34C16.5678 34 13.4407 33.3245 10.6949 31.9735C8 30.5725 5.86441 28.596 4.28814 26.0441C2.76271 23.4923 2 20.465 2 16.9625Z" fill="white"/>
<path d="M15.8827 11.4213L20 15.5387L24.096 11.4427C24.1865 11.3464 24.2955 11.2693 24.4164 11.2162C24.5374 11.163 24.6679 11.1348 24.8 11.1333C25.0829 11.1333 25.3542 11.2457 25.5542 11.4458C25.7543 11.6458 25.8667 11.9171 25.8667 12.2C25.8692 12.3308 25.8449 12.4607 25.7954 12.5817C25.7458 12.7028 25.6721 12.8125 25.5787 12.904L21.4293 17L25.5787 21.1493C25.7545 21.3213 25.8576 21.5542 25.8667 21.8C25.8667 22.0829 25.7543 22.3542 25.5542 22.5542C25.3542 22.7543 25.0829 22.8667 24.8 22.8667C24.6641 22.8723 24.5284 22.8496 24.4017 22.8C24.275 22.7505 24.16 22.6751 24.064 22.5787L20 18.4613L15.8933 22.568C15.8032 22.6611 15.6955 22.7354 15.5765 22.7867C15.4575 22.8379 15.3296 22.8651 15.2 22.8667C14.9171 22.8667 14.6458 22.7543 14.4458 22.5542C14.2457 22.3542 14.1333 22.0829 14.1333 21.8C14.1308 21.6692 14.1551 21.5393 14.2046 21.4183C14.2542 21.2972 14.3279 21.1875 14.4213 21.096L18.5707 17L14.4213 12.8507C14.2455 12.6787 14.1424 12.4458 14.1333 12.2C14.1333 11.9171 14.2457 11.6458 14.4458 11.4458C14.6458 11.2457 14.9171 11.1333 15.2 11.1333C15.456 11.1365 15.7013 11.24 15.8827 11.4213Z" fill="black"/>
</svg>
