<svg width="10" height="7" viewBox="0 0 10 7" fill="none" xmlns="http://www.w3.org/2000/svg">
<path d="M1.45504 1.43051e-06L8.29496 1.43051e-06C8.56499 -0.000362873 8.82962 0.0705385 9.0582 0.204499C9.28678 0.33846 9.46998 0.530003 9.58658 0.756956C9.72308 1.02624 9.77566 1.32583 9.73831 1.6216C9.70097 1.91737 9.57521 2.19742 9.37537 2.42983L5.95542 6.2903C5.8212 6.43459 5.65527 6.55032 5.46886 6.62964C5.28245 6.70895 5.07992 6.75 4.875 6.75C4.67008 6.75 4.46755 6.70895 4.28114 6.62964C4.09473 6.55032 3.9288 6.43459 3.79459 6.2903L0.374626 2.42983C0.174786 2.19742 0.0490284 1.91737 0.0116863 1.6216C-0.0256567 1.32583 0.0269194 1.02624 0.163419 0.756956C0.280024 0.530003 0.463221 0.33846 0.691803 0.204499C0.920386 0.0705385 1.18501 -0.000362873 1.45504 1.43051e-06Z" fill="#FFC701"/>
</svg>
