<svg width="24" height="25" viewBox="0 0 24 25" fill="none" xmlns="http://www.w3.org/2000/svg">
<path d="M14 14.3962H10V21.5283H14V14.3962Z" fill="white"/>
<path d="M20.4201 10.4999L12.7101 2.47124C12.6172 2.37574 12.5066 2.29995 12.3847 2.24822C12.2628 2.19649 12.1321 2.16986 12.0001 2.16986C11.8681 2.16986 11.7374 2.19649 11.6155 2.24822C11.4937 2.29995 11.3831 2.37574 11.2901 2.47124L3.58012 10.5101C3.39355 10.7017 3.24621 10.9292 3.14664 11.1793C3.04708 11.4294 2.99727 11.6972 3.00012 11.9671V20.5052C2.99934 21.0268 3.19489 21.5288 3.54649 21.9079C3.89809 22.287 4.37898 22.5143 4.89012 22.5429H8.00012V13.3731C8.00012 13.1029 8.10547 12.8438 8.29301 12.6527C8.48055 12.4616 8.7349 12.3543 9.00012 12.3543H15.0001C15.2653 12.3543 15.5197 12.4616 15.7072 12.6527C15.8948 12.8438 16.0001 13.1029 16.0001 13.3731V22.5429H19.1101C19.6213 22.5143 20.1021 22.287 20.4537 21.9079C20.8053 21.5288 21.0009 21.0268 21.0001 20.5052V11.9671C21.0009 11.4199 20.7929 10.8938 20.4201 10.4999Z" fill="white"/>
</svg>
