<svg width="48" height="48" viewBox="0 0 48 48" fill="none" xmlns="http://www.w3.org/2000/svg">
<g clip-path="url(#clip0_1_2628)">
<path d="M4 13C4 10.2386 6.23858 8 9 8H38C40.7614 8 43 10.2386 43 13V36.8342C43 38.491 41.6569 39.8342 40 39.8342H7C5.34315 39.8342 4 38.4911 4 36.8342V13Z" fill="#21242B"/>
<path d="M12.8637 39.8425V23.4429L8.19052 18.7899L4 16.2079V36.9484C4 38.5497 5.19209 39.8425 6.65916 39.8425H12.8637Z" fill="#4285F4"/>
<path d="M34.1364 39.8425H40.3409C41.8123 39.8425 43 38.545 43 36.9484V16.2081L38.2536 19.1656L34.1364 23.4429V39.8425Z" fill="#34A853"/>
<path d="M12.8637 23.4429L12.2278 17.0351L12.8637 10.9022L23.5 19.5843L34.1363 10.9022L34.8476 16.704L34.1363 23.4429L23.5 32.125L12.8637 23.4429Z" fill="#EA4335"/>
<path d="M34.1364 10.9022V23.4428L43 16.2079V12.3491C43 8.77027 39.2463 6.73006 36.6183 8.87638L34.1364 10.9022Z" fill="#FBBC04"/>
<path d="M4 16.2078L8.07657 19.5355L12.8637 23.4428V10.9021L10.3817 8.87634C7.74918 6.72985 4 8.77022 4 12.3489V16.2077V16.2078Z" fill="#C5221F"/>
</g>
<defs>
<clipPath id="clip0_1_2628">
<rect width="39" height="32" fill="white" transform="translate(4 8)"/>
</clipPath>
</defs>
</svg>
