<svg width="48" height="48" viewBox="0 0 48 48" fill="none" xmlns="http://www.w3.org/2000/svg">
<path d="M42 37C42 39.762 39.762 42 37 42H11C8.239 42 6 39.762 6 37V11C6 8.238 8.239 6 11 6H37C39.762 6 42 8.238 42 11V37Z" fill="url(#paint0_linear_1_2636)"/>
<path d="M34 13H14C13.448 13 13 13.448 13 14V26C13 26.552 13.448 27 14 27H34C34.552 27 35 26.552 35 26V14C35 13.448 34.552 13 34 13ZM33 17L24 21L15 17V15H33V17Z" fill="white"/>
<path d="M11.3594 32.9486H12.8636L13.7397 35.1889L14.6271 32.9486H16.0917L13.8867 38.253H12.4127L13.0163 36.8477L11.3594 32.9486Z" fill="white"/>
<path d="M17.6161 32.859C16.4858 32.859 15.7719 33.8726 15.7719 34.8817C15.7719 36.0177 16.5552 36.9177 17.5946 36.9177C18.3704 36.9177 18.6624 36.4453 18.6624 36.4453V36.8136H19.9743V32.9486H18.6624V33.2999C18.6631 33.2999 18.3364 32.859 17.6161 32.859ZM17.8955 34.1015C18.4171 34.1015 18.6858 34.514 18.6858 34.8861C18.6858 35.2873 18.3975 35.6802 17.8955 35.6802C17.4792 35.6802 17.1033 35.3403 17.1033 34.9032C17.1027 34.4598 17.4054 34.1015 17.8955 34.1015Z" fill="white"/>
<path d="M20.4266 36.8136V31.2418H21.7984V33.3131C21.7984 33.3131 22.1245 32.8596 22.8069 32.8596C23.642 32.8596 24.1308 33.4815 24.1308 34.3708V36.8136H22.7691V34.7051C22.7691 34.4043 22.6259 34.1135 22.3011 34.1135C21.9706 34.1135 21.7984 34.4087 21.7984 34.7051V36.8136H20.4266Z" fill="white"/>
<path d="M26.4701 32.8596C25.1759 32.8596 24.4052 33.8435 24.4052 34.8981C24.4052 36.0977 25.338 36.9183 26.4745 36.9183C27.5764 36.9183 28.5402 36.1356 28.5402 34.9183C28.5408 33.5868 27.5316 32.8596 26.4701 32.8596ZM26.4827 34.1129C26.94 34.1129 27.256 34.4938 27.256 34.8994C27.256 35.2456 26.9615 35.6726 26.4827 35.6726C26.0444 35.6726 25.7152 35.3207 25.7152 34.8956C25.7152 34.4862 25.9883 34.1129 26.4827 34.1129Z" fill="white"/>
<path d="M30.8265 32.8596C29.5323 32.8596 28.7615 33.8435 28.7615 34.8981C28.7615 36.0977 29.6944 36.9183 30.8309 36.9183C31.9328 36.9183 32.8965 36.1356 32.8965 34.9183C32.8972 33.5868 31.888 32.8596 30.8265 32.8596ZM30.8391 34.1129C31.2964 34.1129 31.6124 34.4938 31.6124 34.8994C31.6124 35.2456 31.3178 35.6726 30.8391 35.6726C30.4008 35.6726 30.0715 35.3207 30.0715 34.8956C30.0709 34.4862 30.3446 34.1129 30.8391 34.1129Z" fill="white"/>
<path d="M33.9801 36.8963C34.4835 36.8963 34.8915 36.4882 34.8915 35.9849C34.8915 35.4815 34.4835 35.0735 33.9801 35.0735C33.4768 35.0735 33.0687 35.4815 33.0687 35.9849C33.0687 36.4882 33.4768 36.8963 33.9801 36.8963Z" fill="white"/>
<path d="M35.1905 34.7386H33.55L35.0057 31.2412H36.6399L35.1905 34.7386Z" fill="white"/>
<defs>
<linearGradient id="paint0_linear_1_2636" x1="40.5" y1="7.5" x2="7.5" y2="40.5" gradientUnits="userSpaceOnUse">
<stop stop-color="#4A06A2"/>
<stop offset="0.597835" stop-color="#631DCF"/>
<stop offset="1" stop-color="#7E30D3"/>
</linearGradient>
</defs>
</svg>
