<svg width="10" height="10" viewBox="0 0 10 10" fill="none" xmlns="http://www.w3.org/2000/svg">
<path d="M2.3735 0.999989H4.1055C4.20052 1.00002 4.29198 1.03611 4.3614 1.10098C4.43083 1.16584 4.47304 1.25464 4.47952 1.34943C4.48599 1.44422 4.45625 1.53794 4.39629 1.61164C4.33633 1.68534 4.25063 1.73354 4.1565 1.74649L4.1055 1.74999H2.3735C2.08852 1.74995 1.81414 1.85806 1.60579 2.05249C1.39744 2.24692 1.27064 2.51318 1.251 2.79749L1.2485 2.87499V7.62499C1.2486 7.90997 1.35684 8.18429 1.55136 8.39255C1.74588 8.60081 2.0122 8.72748 2.2965 8.74699L2.3735 8.74999H7.1235C7.40857 8.75002 7.68302 8.64184 7.89138 8.4473C8.09975 8.25277 8.22649 7.98638 8.24601 7.70199L8.2485 7.62499V7.37599C8.24753 7.2803 8.28318 7.18786 8.34814 7.1176C8.4131 7.04733 8.50247 7.00456 8.59794 6.99805C8.69341 6.99153 8.78776 7.02176 8.86168 7.08254C8.93559 7.14332 8.98346 7.23006 8.9955 7.32499L8.9985 7.37599V7.62499C8.99842 8.1049 8.81432 8.56651 8.48411 8.91476C8.15391 9.26301 7.70273 9.47139 7.22351 9.49699L7.1235 9.49999H2.3735C1.89342 9.50003 1.43162 9.31591 1.08325 8.98559C0.734876 8.65526 0.526481 8.20389 0.501005 7.72449L0.498505 7.62449V2.87449C0.498589 2.39458 0.682691 1.93297 1.0129 1.58471C1.3431 1.23646 1.79428 1.02808 2.2735 1.00249L2.3735 0.999989H4.1055H2.3735ZM6.25 2.27199V0.874989C6.24996 0.806012 6.26894 0.738359 6.30486 0.679473C6.34079 0.620587 6.39225 0.572749 6.4536 0.541221C6.51495 0.509693 6.58381 0.495697 6.6526 0.500773C6.72139 0.505848 6.78745 0.529799 6.8435 0.569989L6.8845 0.603989L9.88151 3.47899C10.0215 3.61349 10.0345 3.82899 9.92 3.97799L9.88151 4.02049L6.8845 6.89649C6.83474 6.94429 6.77274 6.97743 6.70535 6.99226C6.63796 7.00709 6.56778 7.00304 6.50254 6.98056C6.4373 6.95807 6.37954 6.91802 6.3356 6.86481C6.29166 6.8116 6.26325 6.7473 6.2535 6.67899L6.25 6.62549V5.22499L6.0895 5.22149C4.7605 5.21749 3.6245 5.76349 2.657 6.87249C2.409 7.15599 1.9445 6.93799 2.004 6.56599C2.4175 3.99599 3.804 2.54399 6.099 2.28699L6.25 2.27199V0.874989V2.27199Z" fill="#1A1B20"/>
</svg>
