<svg width="30" height="30" viewBox="0 0 30 30" fill="none" xmlns="http://www.w3.org/2000/svg">
<rect x="0.5" y="0.5" width="29" height="29" rx="7.5" stroke="#45556A"/>
<path d="M15.4703 9.14337C15.8096 8.82131 16.3492 9.07609 16.3492 9.55886V19.9406C16.3492 20.4234 15.8096 20.6785 15.4703 20.3558L12.9995 18.007C12.737 17.7575 12.3968 17.6195 12.0441 17.6196H10.6284C10.2091 17.6196 9.80705 17.4432 9.5106 17.1292C9.21415 16.8153 9.04761 16.3895 9.04761 15.9455V13.554C9.04761 12.6293 9.75518 11.8799 10.6284 11.8799H12.0441C12.3968 11.8799 12.737 11.742 12.9995 11.4925L15.4703 9.14337Z" fill="white"/>
<path fill-rule="evenodd" clip-rule="evenodd" d="M18.1909 12.0507C18.3008 11.9705 18.4612 11.9868 18.5491 12.087C18.8119 12.3867 19.2897 12.9754 19.4608 13.8026C19.6337 14.6391 19.4872 15.6905 18.5589 16.9005C18.4782 17.0058 18.3193 17.0314 18.2039 16.9577C18.0886 16.884 18.0606 16.739 18.1413 16.6338C18.9971 15.5183 19.1054 14.5929 18.9598 13.8888C18.8123 13.1753 18.3981 12.6593 18.1511 12.3776C18.0632 12.2773 18.081 12.131 18.1909 12.0507Z" fill="#7692B8"/>
<path fill-rule="evenodd" clip-rule="evenodd" d="M19.6369 10.5501C19.7588 10.4643 19.9288 10.4912 20.0168 10.6101C20.4027 11.1324 21.0918 12.1426 21.3381 13.556C21.5857 14.977 21.3813 16.7798 20.0262 18.876C19.946 19 19.7779 19.0371 19.6508 18.9589C19.5238 18.8806 19.4857 18.7165 19.566 18.5925C20.8527 16.6021 21.0257 14.9313 20.8016 13.6451C20.5761 12.3512 19.9443 11.4202 19.5754 10.9209C19.4875 10.8019 19.515 10.6359 19.6369 10.5501Z" fill="#7692B8"/>
</svg>
