<svg width="61" height="19" viewBox="0 0 61 19" fill="none" xmlns="http://www.w3.org/2000/svg">
<path d="M11.5039 9.41016C11.5039 10.8008 11.3984 12.043 11.1875 13.1367C10.9766 14.2305 10.6445 15.1562 10.1914 15.9141C9.73828 16.6719 9.15234 17.25 8.43359 17.6484C7.71484 18.0391 6.85156 18.2344 5.84375 18.2344C4.57031 18.2344 3.51562 17.8867 2.67969 17.1914C1.85156 16.4961 1.23047 15.4922 0.816406 14.1797C0.410156 12.8594 0.207031 11.2695 0.207031 9.41016C0.207031 7.58203 0.390625 6.01172 0.757812 4.69922C1.13281 3.37891 1.73438 2.36719 2.5625 1.66406C3.39062 0.953125 4.48438 0.597656 5.84375 0.597656C7.13281 0.597656 8.19531 0.949219 9.03125 1.65234C9.86719 2.34766 10.4883 3.35547 10.8945 4.67578C11.3008 5.98828 11.5039 7.56641 11.5039 9.41016ZM2.16406 9.41016C2.16406 11.0039 2.28516 12.332 2.52734 13.3945C2.76953 14.457 3.16016 15.2539 3.69922 15.7852C4.24609 16.3086 4.96094 16.5703 5.84375 16.5703C6.72656 16.5703 7.4375 16.3086 7.97656 15.7852C8.52344 15.2617 8.91797 14.4688 9.16016 13.4062C9.41016 12.3438 9.53516 11.0117 9.53516 9.41016C9.53516 7.83984 9.41406 6.52734 9.17188 5.47266C8.92969 4.41016 8.53906 3.61328 8 3.08203C7.46094 2.54297 6.74219 2.27344 5.84375 2.27344C4.94531 2.27344 4.22656 2.54297 3.6875 3.08203C3.14844 3.61328 2.75781 4.41016 2.51562 5.47266C2.28125 6.52734 2.16406 7.83984 2.16406 9.41016ZM27.6383 9.41016C27.6383 10.8008 27.5328 12.043 27.3219 13.1367C27.1109 14.2305 26.7789 15.1562 26.3258 15.9141C25.8727 16.6719 25.2867 17.25 24.568 17.6484C23.8492 18.0391 22.9859 18.2344 21.9781 18.2344C20.7047 18.2344 19.65 17.8867 18.8141 17.1914C17.9859 16.4961 17.3648 15.4922 16.9508 14.1797C16.5445 12.8594 16.3414 11.2695 16.3414 9.41016C16.3414 7.58203 16.525 6.01172 16.8922 4.69922C17.2672 3.37891 17.8687 2.36719 18.6969 1.66406C19.525 0.953125 20.6187 0.597656 21.9781 0.597656C23.2672 0.597656 24.3297 0.949219 25.1656 1.65234C26.0016 2.34766 26.6227 3.35547 27.0289 4.67578C27.4352 5.98828 27.6383 7.56641 27.6383 9.41016ZM18.2984 9.41016C18.2984 11.0039 18.4195 12.332 18.6617 13.3945C18.9039 14.457 19.2945 15.2539 19.8336 15.7852C20.3805 16.3086 21.0953 16.5703 21.9781 16.5703C22.8609 16.5703 23.5719 16.3086 24.1109 15.7852C24.6578 15.2617 25.0523 14.4688 25.2945 13.4062C25.5445 12.3438 25.6695 11.0117 25.6695 9.41016C25.6695 7.83984 25.5484 6.52734 25.3062 5.47266C25.0641 4.41016 24.6734 3.61328 24.1344 3.08203C23.5953 2.54297 22.8766 2.27344 21.9781 2.27344C21.0797 2.27344 20.3609 2.54297 19.8219 3.08203C19.2828 3.61328 18.8922 4.41016 18.65 5.47266C18.4156 6.52734 18.2984 7.83984 18.2984 9.41016ZM43.7727 9.41016C43.7727 10.8008 43.6672 12.043 43.4562 13.1367C43.2453 14.2305 42.9133 15.1562 42.4602 15.9141C42.007 16.6719 41.4211 17.25 40.7023 17.6484C39.9836 18.0391 39.1203 18.2344 38.1125 18.2344C36.8391 18.2344 35.7844 17.8867 34.9484 17.1914C34.1203 16.4961 33.4992 15.4922 33.0852 14.1797C32.6789 12.8594 32.4758 11.2695 32.4758 9.41016C32.4758 7.58203 32.6594 6.01172 33.0266 4.69922C33.4016 3.37891 34.0031 2.36719 34.8312 1.66406C35.6594 0.953125 36.7531 0.597656 38.1125 0.597656C39.4016 0.597656 40.4641 0.949219 41.3 1.65234C42.1359 2.34766 42.757 3.35547 43.1633 4.67578C43.5695 5.98828 43.7727 7.56641 43.7727 9.41016ZM34.4328 9.41016C34.4328 11.0039 34.5539 12.332 34.7961 13.3945C35.0383 14.457 35.4289 15.2539 35.968 15.7852C36.5148 16.3086 37.2297 16.5703 38.1125 16.5703C38.9953 16.5703 39.7062 16.3086 40.2453 15.7852C40.7922 15.2617 41.1867 14.4688 41.4289 13.4062C41.6789 12.3438 41.8039 11.0117 41.8039 9.41016C41.8039 7.83984 41.6828 6.52734 41.4406 5.47266C41.1984 4.41016 40.8078 3.61328 40.2687 3.08203C39.7297 2.54297 39.0109 2.27344 38.1125 2.27344C37.2141 2.27344 36.4953 2.54297 35.9562 3.08203C35.4172 3.61328 35.0266 4.41016 34.7844 5.47266C34.55 6.52734 34.4328 7.83984 34.4328 9.41016Z" fill="#515B85"/>
<path d="M60.6688 14.0273H58.1023V18H56.2039V14.0273H47.9188V12.3867L56.075 0.773438H58.1023V12.2695H60.6688V14.0273ZM56.2039 12.2695V6.66797C56.2039 6.23828 56.2078 5.85156 56.2156 5.50781C56.2234 5.15625 56.2352 4.83203 56.2508 4.53516C56.2664 4.23047 56.2781 3.94141 56.2859 3.66797C56.3016 3.39453 56.3133 3.125 56.3211 2.85938H56.2273C56.0789 3.17188 55.907 3.50391 55.7117 3.85547C55.5242 4.19922 55.3328 4.50781 55.1375 4.78125L49.8523 12.2695H56.2039Z" fill="white"/>
</svg>
